<?xml version="1.0" standalone="no"?>
<!DOCTYPE svg PUBLIC "-//W3C//DTD SVG 20010904//EN"
 "http://www.w3.org/TR/2001/REC-SVG-20010904/DTD/svg10.dtd">
<svg version="1.0" xmlns="http://www.w3.org/2000/svg"
 width="200.000000pt" height="200.000000pt" viewBox="0 0 200.000000 200.000000"
 preserveAspectRatio="xMidYMid meet">
<metadata>
Created by potrace 1.16, written by Peter Selinger 2001-2019
</metadata>
<g transform="translate(0.000000,200.000000) scale(0.100000,-0.100000)"
fill="#000000" stroke="none">
<path d="M0 1000 l0 -1000 1000 0 1000 0 0 1000 0 1000 -1000 0 -1000 0 0
-1000z m623 758 c13 -18 129 -179 257 -358 129 -179 288 -400 354 -492 67 -92
168 -233 226 -314 58 -81 142 -198 188 -261 45 -62 82 -118 82 -123 0 -6 -63
-10 -160 -10 -140 0 -162 2 -175 18 -8 9 -73 100 -144 202 -149 212 -256 365
-321 456 -25 35 -79 111 -120 170 -41 59 -95 136 -120 170 -25 35 -79 112
-120 171 -41 59 -118 170 -172 246 -54 75 -98 142 -98 147 0 6 57 10 149 10
l150 0 24 -32z m1045 -25 c-17 -27 -57 -83 -88 -125 -30 -42 -91 -129 -135
-193 -44 -64 -85 -122 -91 -128 -5 -7 -29 -40 -52 -74 -24 -35 -44 -63 -45
-63 -2 0 -27 34 -57 76 -30 41 -63 85 -72 96 -23 28 -23 40 5 74 22 28 105
145 215 301 l57 82 148 1 148 0 -33 -47z m-850 -999 l72 -106 -47 -72 c-27
-39 -51 -73 -54 -76 -6 -6 -118 -161 -163 -228 l-29 -42 -153 0 c-85 0 -154 3
-154 6 0 7 56 89 116 169 24 33 52 71 62 85 20 30 216 303 246 343 11 15 22
27 25 27 3 0 39 -48 79 -106z"/>
</g>
</svg>
